# xmcd
#
# Track frame offsets:
#	150
#	27792
#	52200
#	67577
#	85015
#	100977
#	117252
#	131932
#	157067
#	178137
#	193095
#	207290
#	225567
#	242215
#	259050
#	280797
#	299950
#	319347
#	342480
#
# Disc length: 4726
#
# Revision: 1
# Processed by: cddbd v1.5.1PL0 Copyright (c) Steve Scherf et al.
# Submitted via: EasyCDDAExtractor 5.0.5.1
# Normalized: r0:DSETVAR1
#
DISCID=2b127413
DTITLE=Various Artist - Romantic Soul
DYEAR=1993
DGENRE=Soul
TTITLE0=Aretha Franklin - What A Fool Believes
TTITLE1=Jermaine Jackson - Sweetest Sweetest
TTITLE2=Dionne Warwick and Luther Vandross - How Many Times Can We Say Goodbye
TTITLE3=KC and The Sunshine Band - Please Don't Go
TTITLE4=Roberta Flack - Peabo Bryson - Tonight I Celebrate My Love For You
TTITLE5=Dorothy Moore - Misty Blue
TTITLE6=Maxine Nightingale - Right Back Where I Started From
TTITLE7=Chi-Lites - Have You Seen Her
TTITLE8=Stephanie Mills and Teddy Pendergrass - Two Hearts
TTITLE9=Stylistics - Can't Help Falling In Love
TTITLE10=Gloria Gaynor - Reach Out (I'll Be There)
TTITLE11=Barry White - Can't Get Enough Of Your Love Babe
TTITLE12=Shalamar - A Night To Remeber
TTITLE13=Harold Melvin - Wake Up Everybody
TTITLE14=Luther Vandross - I Gave It Up (When I Fall In Love)
TTITLE15=Glen Goldsmith - Dreaming
TTITLE16=Eddie Holman - You're My Lady (Right Or Wrong)
TTITLE17=Kool and The Gang - Jump Up On The Rhythm And Ride
TTITLE18=Isley Brothers - Time After Time
EXTD=
EXTT0=
EXTT1=
EXTT2=
EXTT3=
EXTT4=
EXTT5=
EXTT6=
EXTT7=
EXTT8=
EXTT9=
EXTT10=
EXTT11=
EXTT12=
EXTT13=
EXTT14=
EXTT15=
EXTT16=
EXTT17=
EXTT18=
PLAYORDER=
